<svg width="49" height="48" fill="none" xmlns="http://www.w3.org/2000/svg"><circle cx="24.5" cy="24" r="23" stroke="#2D3440" stroke-width="2"/><g clip-path="url(#a)"><path d="M35.249 18.2868c.725-1.4841 1.1387-3.0925 1.2173-4.7322a12.053 12.053 0 0 0-.7594-4.8209 1.0073 1.0073 0 0 0-.3368-.4785 1.06 1.06 0 0 0-.5536-.2199 1.0707 1.0707 0 0 0-.5872.1114 1.0254 1.0254 0 0 0-.4267.4058c-1.3215 2.2851-4.1622 5.9694-6.2433 6.1405h-.0937a17.3359 17.3359 0 0 0-2.9032-.3019 17.4167 17.4167 0 0 0-2.9135.3019h-.0729c-2.0811-.161-4.9635-3.8453-6.2954-6.1304a1.0213 1.0213 0 0 0-.4246-.4338 1.0695 1.0695 0 0 0-.6039-.1246 1.0597 1.0597 0 0 0-.5707.2284 1.0043 1.0043 0 0 0-.3362.5011 11.9957 11.9957 0 0 0-.7883 4.811c.0697 1.6383.4756 3.2469 1.1941 4.732-1.8106.2214-4.1102.7852-4.9427 2.2045A2.15 2.15 0 0 0 8.5 21.5885c0 .389.1064.771.3083 1.1073.2384.4113.5932.7482 1.0227.9711a2.6313 2.6313 0 0 0 1.4018.2872 7.5748 7.5748 0 0 0 2.5182-.4831 8.4458 8.4458 0 0 0 .1353 1.6206 34.441 34.441 0 0 0 1.8209 5.2346c.1978.4731.4163 1.0066.5307 1.3287a14.6143 14.6143 0 0 0-.8012 2.4965 4.3234 4.3234 0 0 0 .2288 1.7819 4.4281 4.4281 0 0 0 .9366 1.5501C18.1109 39.1544 20.7644 40 24.5312 40c3.7669 0 6.4307-.8456 7.9291-2.5166a4.3897 4.3897 0 0 0 .9402-1.549 4.2853 4.2853 0 0 0 .2252-1.783 14.5862 14.5862 0 0 0-.7908-2.4965c.1145-.3221.333-.8455.5203-1.3287a32.6158 32.6158 0 0 0 1.821-5.2346c.105-.534.1538-1.077.1456-1.6206a7.5637 7.5637 0 0 0 2.435.4831 2.6526 2.6526 0 0 0 1.406-.2877c.431-.2227.7878-.5593 1.0289-.9706a2.1499 2.1499 0 0 0 .3083-1.1073c0-.3889-.1064-.7709-.3083-1.1073-.8221-1.369-3.1217-1.973-4.9427-2.1944Zm-.9885-6.6841c.3753 2.105.0088 4.271-1.0406 6.1505a11.0587 11.0587 0 0 0-.8324-.8757A7.4871 7.4871 0 0 0 30.4 15.6091c1.5008-1.1263 2.8043-2.4791 3.8605-4.0064Zm-19.4689 0c1.0456 1.5379 2.3464 2.8984 3.85 4.0265a6.8152 6.8152 0 0 0-1.9666 1.2684c-.298.2762-.5794.5686-.8429.8758-1.0525-1.8858-1.419-4.0592-1.0405-6.1707Zm-4.0999 10.1268c-.0936-.1611-.0624-.2114 0-.2517.2394-.3926 1.4464-1.0066 3.7565-1.2382-.1145.292-.2186.5839-.3122.8859-1.3527.6744-3.1633 1.0972-3.4443.604Zm22.4346 3.0199a33.302 33.302 0 0 1-1.6858 4.8419 19.5595 19.5595 0 0 0-.7179 1.8825l-.0625.312.1145.2819a15.897 15.897 0 0 1 .8012 2.3656c.011.3175-.0431.634-.1592.9311a2.3942 2.3942 0 0 1-.5171.8003c-.7492.8355-2.4558 1.822-6.3579 1.822s-5.6086-1.0066-6.3578-1.822c-.4493-.4703-.6918-1.0912-.6764-1.7314.2085-.8072.4798-1.598.8117-2.3656l.1144-.2819-.0728-.312a15.9661 15.9661 0 0 0-.7076-1.8925 32.4143 32.4143 0 0 1-1.7065-4.8722 7.0021 7.0021 0 0 1 .2832-3.4655c.3844-1.1156 1.0444-2.1237 1.9228-2.9367 1.5712-1.5301 5.1299-1.8724 6.3682-1.8824 1.2383-.0101 4.7242.3422 6.3891 1.9025.8837.8053 1.5483 1.8091 1.935 2.9224a6.9166 6.9166 0 0 1 .2814 3.4597v.0403Zm5.2028-3.0199c-.2706.4832-2.0812.0704-3.3715-.594-.0832-.3019-.1873-.5939-.3017-.8959 2.2892.2316 3.4859.8456 3.7148 1.2382.052.0403.0728.0906-.0208.2517h-.0208Z" fill="#2D3440"/></g><defs><clipPath id="a"><path fill="#fff" d="M8.5 8h32v32h-32z"/></clipPath></defs></svg>