<svg width="10" height="10" fill="none" xmlns="http://www.w3.org/2000/svg"><path fill-rule="evenodd" clip-rule="evenodd" d="M9.80303 1.13807c.26037-.26035.26037-.68246 0-.9428-.26035-.26036-.68246-.26036-.94281 0L4.99914 4.05632 1.13807.19526c-.26035-.26035-.68246-.26035-.9428 0-.26036.26035-.26036.68246 0 .94281l3.86106 3.86107L.19526 8.86022c-.26035.26035-.26035.68246 0 .94281.26035.26037.68246.26037.94281 0l3.86107-3.86108 3.86108 3.86108c.26035.26037.68246.26037.94281 0 .26037-.26035.26037-.68246 0-.94281L5.94195 4.99914l3.86108-3.86107Z" fill="#2D3440"/></svg>