<svg width="16" height="16" fill="none" xmlns="http://www.w3.org/2000/svg"><path fill-rule="evenodd" clip-rule="evenodd" d="M1.61516 1.61532a.9628.9628 0 0 1 .68077-.28199H13.7029c.2418 0 .3402.02853.3947.05261.0577.0255.1306.07387.2861.22938.2072.20719.282.43225.282.68077V13.6647a.65796.65796 0 0 0-.0011.0373.9628.9628 0 0 1-.9627.9628H2.29593a.96302.96302 0 0 1-.68077-.282.9628.9628 0 0 1-.28198-.6808V2.29609a.96275.96275 0 0 1 .28198-.68077ZM15.8381 14.5437c-.1143.2903-.2877.557-.5126.7819a2.29623 2.29623 0 0 1-1.6236.6725H2.29593A2.29607 2.29607 0 0 1-.00015 13.702V2.29609A2.2961 2.2961 0 0 1 1.45852.15815C1.57476.05951 1.72526 0 1.88966 0H13.7029c.3375 0 .6429.0379.9336.16636.2875.12703.5011.31728.69.50615.4815.48156.6725 1.05738.6725 1.62358V14.1094c0 .1659-.0606.3176-.1609.4343Z" fill="#2D3440"/></svg>