<svg width="16" height="16" fill="none" xmlns="http://www.w3.org/2000/svg"><path fill-rule="evenodd" clip-rule="evenodd" d="M1.6152 1.6154a.9628.9628 0 0 1 .6808-.282h11.4069c.2418 0 .3402.0285.3947.0526.0577.0255.1306.0739.2861.2294.2072.2072.282.4322.282.6807v11.3686a.6644.6644 0 0 0-.001.0374.9632.9632 0 0 1-.282.6808.9631.9631 0 0 1-.6808.2819H2.2959a.9629.9629 0 0 1-.9627-.9627V2.2961a.9627.9627 0 0 1 .282-.6807Zm14.223 12.9283a2.2963 2.2963 0 0 1-2.1363 1.4545H2.2959A2.296 2.296 0 0 1 0 13.7021V2.2961A2.296 2.296 0 0 1 1.4586.1582a.664.664 0 0 1 .431-.1581H13.703c.3375 0 .6429.0379.9336.1663.2875.127.5011.3173.69.5062.4816.4815.6725 1.0574.6725 1.6235v11.8133a.6642.6642 0 0 1-.1608.4343Z" fill="#FCFCFC"/></svg>