<svg width="16" height="16" fill="none" xmlns="http://www.w3.org/2000/svg"><path fill-rule="evenodd" clip-rule="evenodd" d="m8.00194 1.33333-.00236.00001c-3.68167 0-6.66625 2.98458-6.66625 6.66624 0 3.68102 2.98353 6.66522 6.6643 6.66622H8c3.6817 0 6.6662-2.9846 6.6662-6.66623 0-3.68101-2.9835-6.66518-6.66426-6.66624Zm0 14.66577c-.00078 0-.00157.0001-.00236.0001C3.58153 15.9992 0 12.4176 0 7.99958 0 3.58251 3.57996.00158 7.99666.00001L8 0c4.418 0 7.9996 3.58153 7.9996 7.99957 0 4.41743-3.5805 7.99853-7.99766 7.99953Z" fill="#2D3440"/></svg>