<svg width="15" height="14" fill="none" xmlns="http://www.w3.org/2000/svg"><path fill-rule="evenodd" clip-rule="evenodd" d="M1.16667.25C.79847.25.5.54848.5.91667c0 .36819.29848.66666.66667.66666h1.77127l.46743 2.33539a.66396.66396 0 0 0 .01063.0531l.96738 4.83333.00012.00056a1.82553 1.82553 0 0 0 1.81833 1.46909h5.62067c.4259.0065.8408-.1361 1.1727-.40327a1.82587 1.82587 0 0 0 .6458-1.06638l.001-.00499.9271-4.86144a.6669.6669 0 0 0-.1412-.54985.66678.66678 0 0 0-.5137-.24171H4.61072L4.1381.78583C4.07574.47426 3.80215.25 3.4844.25H1.16667Zm4.52431 8.29444L4.87759 4.4805h8.23081l-.7756 4.06686a.4923.4923 0 0 1-.1737.28555.4923.4923 0 0 1-.3181.10871v-.00013H6.19614v-.00012l-.01277.00025a.49218.49218 0 0 1-.4922-.39622l-.00019-.00096ZM4.55739 12.5054c0-.6879.55771-1.2457 1.24568-1.2457.68798 0 1.24569.5578 1.24569 1.2457 0 .688-.55771 1.2457-1.24569 1.2457-.68797 0-1.24568-.5577-1.24568-1.2457Zm6.37331 0c0-.6879.5577-1.2457 1.2457-1.2457.688 0 1.2457.5578 1.2457 1.2457 0 .688-.5577 1.2457-1.2457 1.2457-.688 0-1.2457-.5577-1.2457-1.2457Z" fill="#FCFCFC"/></svg>